<?xml version="1.0" standalone="no"?>
<!DOCTYPE svg PUBLIC "-//W3C//DTD SVG 20010904//EN"
 "http://www.w3.org/TR/2001/REC-SVG-20010904/DTD/svg10.dtd">
<svg version="1.0" xmlns="http://www.w3.org/2000/svg"
 width="700.000000pt" height="700.000000pt" viewBox="0 0 700.000000 700.000000"
 preserveAspectRatio="xMidYMid meet">
<metadata>
Created by potrace 1.11, written by Peter Selinger 2001-2013
</metadata>
<g transform="translate(0.000000,700.000000) scale(0.100000,-0.100000)"
fill="#000000" stroke="none">
<path d="M3448 6948 c-123 -101 -367 -341 -459 -451 -56 -66 -58 -71 -43 -89
10 -10 21 -18 25 -18 14 0 123 -69 154 -97 102 -94 198 -277 198 -378 0 -68
-48 -150 -143 -245 -145 -144 -250 -183 -387 -141 -152 46 -239 120 -316 266
-29 55 -60 101 -68 103 -21 4 -84 -55 -382 -352 l-249 -249 210 -211 c245
-246 243 -244 302 -316 25 -30 47 -57 51 -60 23 -19 59 -90 59 -115 0 -43 -36
-76 -133 -123 -46 -22 -101 -55 -121 -73 -110 -96 -162 -264 -113 -369 30 -64
134 -165 202 -196 84 -39 124 -38 203 2 123 61 272 222 272 292 0 17 8 40 19
53 17 22 21 22 62 10 88 -26 202 -118 437 -350 178 -175 262 -251 280 -251 27
0 349 333 488 505 68 83 77 101 64 124 -6 12 -15 21 -21 21 -36 0 -216 163
-262 237 -96 154 -81 323 43 467 134 156 273 204 415 143 133 -57 315 -242
315 -320 0 -55 45 -43 135 35 84 73 515 502 513 510 -2 4 -89 96 -194 205
-209 216 -324 346 -379 429 -34 51 -35 55 -21 81 19 37 86 100 168 157 81 57
147 128 179 193 33 68 33 178 0 246 -56 113 -171 190 -285 190 -95 -1 -166
-33 -242 -109 -35 -35 -64 -68 -64 -73 0 -16 -70 -132 -107 -178 -19 -24 -42
-43 -51 -43 -37 0 -135 82 -318 264 -106 105 -214 211 -240 235 -117 107 -115
106 -196 39z"/>
<path d="M5234 5203 c-34 -32 -144 -137 -245 -234 -256 -246 -268 -257 -324
-294 -76 -50 -98 -52 -137 -12 -18 19 -58 78 -88 131 -85 153 -173 216 -302
218 -104 2 -171 -25 -240 -97 -59 -60 -83 -127 -83 -230 0 -69 4 -89 31 -145
42 -88 79 -127 198 -214 55 -41 112 -85 125 -99 l23 -26 -23 -33 c-27 -38
-169 -206 -207 -247 -15 -15 -49 -52 -76 -82 -26 -30 -72 -79 -100 -109 -28
-30 -76 -84 -106 -120 -30 -35 -63 -73 -72 -84 -10 -11 -18 -25 -18 -31 0 -12
46 -64 200 -225 50 -52 103 -113 118 -135 15 -22 36 -47 47 -55 11 -8 32 -27
47 -42 14 -15 31 -28 38 -28 6 0 27 -16 46 -36 39 -39 83 -52 127 -35 15 6 27
18 27 26 0 45 105 185 180 240 131 96 285 102 430 18 61 -36 156 -128 188
-182 40 -68 36 -195 -10 -301 -18 -42 -82 -128 -115 -153 -13 -10 -29 -24 -36
-31 -6 -7 -47 -36 -89 -65 -42 -29 -79 -59 -82 -66 -8 -22 32 -87 95 -155 95
-102 472 -480 479 -480 3 0 15 10 27 23 19 22 240 231 357 338 162 149 310
249 368 249 31 0 42 -16 53 -75 19 -110 165 -254 293 -291 60 -18 148 -14 198
8 53 23 133 87 164 133 44 65 59 114 56 192 -4 134 -90 251 -259 352 -96 58
-147 97 -147 113 0 17 85 112 256 288 89 91 175 179 190 196 143 155 170 194
154 224 -23 42 -145 176 -352 384 l-208 208 -48 -58 c-81 -98 -153 -196 -163
-220 -19 -53 -184 -125 -287 -126 -114 -1 -193 29 -280 107 -142 128 -178 341
-84 494 25 42 152 159 235 218 100 71 100 82 9 188 -26 30 -378 397 -490 512
-7 7 -17 13 -20 13 -4 0 -35 -26 -68 -57z"/>
<path d="M1664 5195 c-32 -31 -129 -125 -214 -209 -259 -252 -415 -386 -457
-392 -22 -4 -80 72 -129 167 -121 235 -288 302 -500 202 -111 -52 -150 -129
-142 -277 10 -165 84 -273 240 -348 88 -43 148 -91 148 -120 0 -46 -99 -164
-384 -458 -116 -119 -226 -244 -226 -257 0 -29 179 -209 480 -483 10 -8 35
-32 57 -53 l40 -38 78 98 c97 122 127 153 190 201 139 104 268 108 429 14 183
-107 268 -282 214 -441 -41 -123 -126 -217 -286 -318 -48 -30 -87 -58 -87 -63
0 -7 53 -68 170 -195 38 -42 234 -250 324 -345 l90 -95 250 252 c261 262 325
318 401 351 89 38 117 20 208 -134 87 -150 205 -226 339 -220 94 5 157 35 225
109 86 93 118 230 75 319 -26 55 -117 149 -211 219 -44 33 -88 66 -97 72 -8 7
-24 18 -35 25 -10 7 -32 21 -47 31 l-29 19 145 148 c80 82 162 167 182 189
125 134 164 176 195 211 51 56 110 135 110 147 0 35 -344 395 -467 490 -34 26
-81 54 -103 62 -38 13 -42 13 -60 -5 -18 -18 -25 -39 -21 -63 5 -33 -98 -152
-181 -208 -178 -121 -378 -106 -525 40 -81 80 -143 191 -151 273 -14 146 141
373 314 457 36 17 67 38 70 46 11 27 -44 100 -184 245 -77 80 -193 201 -259
269 l-119 123 -60 -57z"/>
<path d="M3462 3371 c-104 -75 -405 -358 -494 -464 -39 -46 -40 -48 -23 -73 9
-14 49 -46 88 -71 99 -63 188 -158 234 -252 51 -102 52 -171 4 -283 -57 -135
-118 -196 -251 -254 -48 -20 -82 -28 -130 -28 -57 -1 -75 4 -154 43 -121 60
-204 143 -269 269 -27 50 -52 92 -56 92 -11 0 -61 -39 -122 -95 -99 -92 -434
-430 -467 -472 l-33 -42 33 -38 c40 -47 201 -225 248 -274 168 -176 291 -321
324 -386 16 -32 16 -33 -15 -68 -19 -21 -69 -53 -128 -82 -175 -87 -245 -197
-236 -373 6 -136 128 -266 284 -302 39 -9 57 -8 99 6 119 40 311 233 312 313
0 29 24 66 43 69 46 6 147 -48 263 -142 74 -60 128 -108 299 -269 72 -67 145
-137 164 -154 19 -18 40 -31 47 -29 16 4 297 280 374 368 30 35 81 99 114 143
l58 80 -138 137 c-80 79 -154 163 -174 196 -33 55 -35 63 -34 144 1 123 47
233 138 327 46 47 142 101 195 109 25 4 53 8 62 9 29 6 134 -37 199 -80 96
-64 166 -139 205 -221 46 -96 53 -101 101 -66 85 62 515 482 562 549 l23 32
-59 68 c-63 73 -102 114 -301 318 -136 140 -223 240 -245 284 -13 25 -13 31 5
60 10 17 30 37 44 43 14 6 25 15 25 20 0 4 5 8 11 8 23 0 150 93 195 143 68
75 99 146 98 227 -1 73 -3 82 -26 126 -27 51 -89 103 -167 142 -101 50 -159
51 -255 2 -86 -43 -202 -153 -246 -233 -31 -56 -79 -103 -103 -101 -53 2 -80
21 -178 126 -127 137 -127 136 -171 173 -19 17 -71 63 -114 104 -76 71 -189
161 -203 161 -3 0 -30 -18 -59 -39z"/>
</g>
</svg>
